<svg xmlns="http://www.w3.org/2000/svg" width="32" height="32" viewBox="0 0 28 28" fill="none">
  <defs>
    <linearGradient id="gearGrad" x1="0" y1="0" x2="28" y2="28" gradientUnits="userSpaceOnUse">
      <stop offset="0" stop-color="#02B6B6"></stop>
      <stop offset="1" stop-color="#0AC0A1"></stop>
    </linearGradient>
  </defs>
  <g transform="translate(0 0)"><path d="M 13.977 9.632 C 13.977 9.589 13.982 9.522 13.986 9.474 Z" fill="url(#gearGrad)" fill-rule="evenodd"></path>
  <path d="M 27.425 10.514 C 27.161 10.118 26.788 9.889 26.324 9.828 C 26.107 9.801 25.88 9.764 25.665 9.73 C 25.39 9.688 25.107 9.644 24.828 9.613 C 24.085 9.538 23.63 9.229 23.355 8.622 C 23.166 8.208 23.143 7.838 23.286 7.473 L 23.392 7.198 C 23.576 6.72 23.768 6.222 23.972 5.739 C 24.168 5.272 24.153 4.813 23.928 4.368 C 23.513 3.554 22.861 2.988 21.995 2.691 C 21.504 2.521 21.018 2.585 20.577 2.875 C 20.366 3.011 20.148 3.143 19.933 3.271 C 19.635 3.452 19.326 3.64 19.036 3.844 C 18.833 3.987 18.576 4.062 18.297 4.062 C 17.6 4.062 16.925 3.602 16.759 3.019 C 16.673 2.706 16.567 2.397 16.465 2.099 C 16.375 1.847 16.288 1.583 16.208 1.327 C 16.046 0.781 15.688 0.403 15.142 0.204 C 14.984 0.147 14.822 0.102 14.663 0.064 C 14.599 0.046 14.528 0.027 14.463 0.008 L 14.43 0 L 13.529 0 L 13.495 0.012 C 13.476 0.016 13.461 0.023 13.443 0.03 C 13.42 0.038 13.397 0.045 13.371 0.049 C 12.452 0.215 11.901 0.683 11.697 1.489 C 11.607 1.843 11.479 2.201 11.359 2.544 L 11.349 2.57 L 11.315 2.669 C 11.265 2.813 11.216 2.955 11.17 3.098 C 10.989 3.648 10.337 4.082 9.684 4.082 C 9.425 4.082 9.179 4.011 8.98 3.871 C 8.615 3.622 8.235 3.388 7.865 3.166 C 7.688 3.057 7.511 2.951 7.337 2.842 C 6.994 2.628 6.617 2.563 6.245 2.658 C 5.232 2.905 4.49 3.523 4.034 4.492 C 3.854 4.88 3.845 5.306 4.019 5.728 C 4.098 5.92 4.173 6.113 4.249 6.308 C 4.362 6.606 4.479 6.911 4.61 7.209 C 4.881 7.819 4.852 8.359 4.508 8.897 C 4.275 9.267 3.97 9.485 3.574 9.561 C 3.004 9.67 2.394 9.764 1.757 9.84 C 1.218 9.9 0.8 10.168 0.51 10.635 C 0.118 11.268 -0.048 11.988 0.012 12.768 C 0.069 13.499 0.419 14.023 1.053 14.324 C 1.283 14.434 1.508 14.566 1.731 14.69 L 1.757 14.705 C 1.993 14.839 2.235 14.977 2.489 15.097 C 2.866 15.27 3.148 15.67 3.239 16.156 C 3.333 16.661 3.205 17.174 2.899 17.486 C 2.473 17.93 2.055 18.409 1.659 18.907 C 1.478 19.129 1.35 19.408 1.3 19.676 C 1.117 20.727 1.998 22.283 2.986 22.652 C 3.231 22.743 3.54 22.769 3.823 22.727 C 4.354 22.644 4.905 22.535 5.504 22.388 C 6.119 22.237 6.593 22.365 7.049 22.814 C 7.391 23.153 7.546 23.519 7.535 23.974 L 7.534 24.023 C 7.52 24.594 7.505 25.202 7.479 25.818 C 7.456 26.296 7.622 26.711 7.965 27.046 C 8.512 27.582 9.198 27.898 10.011 27.985 C 10.102 27.997 10.188 28 10.275 28 C 10.893 28 11.394 27.736 11.753 27.216 C 11.896 27.016 12.051 26.828 12.216 26.628 C 12.387 26.421 12.559 26.21 12.718 25.984 C 12.977 25.6 13.456 25.37 13.991 25.37 C 14.516 25.37 14.99 25.596 15.258 25.969 C 15.467 26.264 15.696 26.549 15.917 26.823 L 15.948 26.863 C 16.091 27.036 16.234 27.213 16.37 27.394 C 16.634 27.737 16.992 27.936 17.395 27.974 C 18.375 28.064 19.253 27.763 19.999 27.081 C 20.357 26.753 20.527 26.331 20.5 25.823 C 20.486 25.605 20.482 25.376 20.478 25.157 L 20.478 25.144 C 20.471 24.85 20.462 24.549 20.44 24.251 C 20.388 23.55 20.607 23.045 21.123 22.664 C 21.465 22.415 21.8 22.324 22.166 22.385 C 22.826 22.494 23.414 22.615 23.968 22.755 C 24.54 22.894 25.069 22.762 25.528 22.355 C 26.105 21.85 26.481 21.205 26.643 20.444 C 26.779 19.807 26.628 19.257 26.195 18.808 C 26.024 18.631 25.859 18.439 25.701 18.255 C 25.542 18.067 25.377 17.874 25.202 17.693 C 24.728 17.204 24.597 16.698 24.774 16.058 C 24.894 15.609 25.116 15.308 25.463 15.112 C 26.032 14.788 26.563 14.497 27.091 14.223 C 27.513 14.001 27.784 13.658 27.893 13.202 C 28.13 12.244 27.972 11.34 27.425 10.514 Z M 13.94 10.666 L 13.936 10.722 L 13.936 11.542 L 14.553 11.196 L 17.761 9.608 C 17.913 9.533 18.084 9.525 18.24 9.585 C 18.395 9.64 18.525 9.761 18.597 9.915 L 19.03 10.858 C 19.178 11.18 19.046 11.565 18.736 11.717 L 13.783 14.166 L 13.678 16.505 L 13.667 16.945 L 13.667 17.1 C 13.667 17.456 13.667 17.52 13.725 17.819 C 13.757 17.977 13.801 18.011 13.985 18.106 C 14.187 18.209 14.437 18.273 14.625 18.273 L 14.69 18.273 C 14.823 18.273 14.946 18.273 15.087 18.243 C 15.492 18.163 15.741 18.069 16.186 17.834 C 16.271 17.788 16.373 17.8 16.449 17.86 C 16.525 17.92 16.561 18.023 16.539 18.121 C 16.5 18.294 16.459 18.649 16.417 19 L 16.413 19.038 C 16.38 19.337 16.34 19.647 16.304 19.897 C 16.289 20 16.213 20.083 16.116 20.11 C 15.657 20.22 15.288 20.292 15.014 20.322 C 14.743 20.349 14.479 20.364 14.237 20.364 C 13.619 20.364 13.11 20.281 12.723 20.11 C 12.314 19.936 11.997 19.648 11.776 19.259 C 11.562 18.877 11.455 18.362 11.455 17.733 C 11.455 17.649 11.458 17.51 11.466 17.316 C 11.472 17.12 11.505 16.458 11.566 15.287 L 11.568 15.262 L 10.385 15.846 C 10.302 15.89 10.21 15.909 10.116 15.909 C 10.048 15.909 9.976 15.898 9.907 15.87 C 9.751 15.815 9.625 15.693 9.553 15.54 L 8.333 12.874 C 8.185 12.552 8.318 12.167 8.63 12.013 L 9.541 11.566 C 9.694 11.491 9.864 11.483 10.02 11.542 C 10.176 11.601 10.305 11.719 10.374 11.872 L 10.894 13.008 L 11.705 12.606 L 11.828 10.635 L 11.906 9.389 C 11.919 9.218 11.926 9.148 11.933 9.069 C 11.945 8.946 11.958 8.806 12.002 8.235 C 12.013 8.117 12.089 8.015 12.205 7.992 C 12.815 7.871 13.34 7.754 13.762 7.644 C 13.838 7.626 13.918 7.64 13.976 7.693 C 14.037 7.747 14.069 7.826 14.066 7.906 C 14.045 8.389 14.028 8.634 14.015 8.815 C 14 9.014 13.992 9.137 13.99 9.416 C 13.99 9.424 13.988 9.446 13.986 9.474 C 13.982 9.522 13.977 9.589 13.977 9.632 C 13.977 9.647 13.978 9.659 13.979 9.666 L 13.94 10.666 Z" fill="url(#gearGrad)" fill-rule="evenodd"></path></g>
</svg>
