<svg xmlns="http://www.w3.org/2000/svg" width="121.714" height="28" viewBox="0 0 121.714 28" fill="none">
<defs>
    <linearGradient id="gearGrad" x1="0" y1="0" x2="28" y2="28" gradientUnits="userSpaceOnUse">
      <stop offset="0" stop-color="#02B6B6"></stop>
      <stop offset="1" stop-color="#0AC0A1"></stop>
    </linearGradient>
  </defs>
  <g transform="translate(0 0)"><path d="M 13.977 9.632 C 13.977 9.589 13.982 9.522 13.986 9.474 Z" fill="url(#gearGrad)" fill-rule="evenodd"></path>
  <path d="M 27.425 10.514 C 27.161 10.118 26.788 9.889 26.324 9.828 C 26.107 9.801 25.88 9.764 25.665 9.73 C 25.39 9.688 25.107 9.644 24.828 9.613 C 24.085 9.538 23.63 9.229 23.355 8.622 C 23.166 8.208 23.143 7.838 23.286 7.473 L 23.392 7.198 C 23.576 6.72 23.768 6.222 23.972 5.739 C 24.168 5.272 24.153 4.813 23.928 4.368 C 23.513 3.554 22.861 2.988 21.995 2.691 C 21.504 2.521 21.018 2.585 20.577 2.875 C 20.366 3.011 20.148 3.143 19.933 3.271 C 19.635 3.452 19.326 3.64 19.036 3.844 C 18.833 3.987 18.576 4.062 18.297 4.062 C 17.6 4.062 16.925 3.602 16.759 3.019 C 16.673 2.706 16.567 2.397 16.465 2.099 C 16.375 1.847 16.288 1.583 16.208 1.327 C 16.046 0.781 15.688 0.403 15.142 0.204 C 14.984 0.147 14.822 0.102 14.663 0.064 C 14.599 0.046 14.528 0.027 14.463 0.008 L 14.43 0 L 13.529 0 L 13.495 0.012 C 13.476 0.016 13.461 0.023 13.443 0.03 C 13.42 0.038 13.397 0.045 13.371 0.049 C 12.452 0.215 11.901 0.683 11.697 1.489 C 11.607 1.843 11.479 2.201 11.359 2.544 L 11.349 2.57 L 11.315 2.669 C 11.265 2.813 11.216 2.955 11.17 3.098 C 10.989 3.648 10.337 4.082 9.684 4.082 C 9.425 4.082 9.179 4.011 8.98 3.871 C 8.615 3.622 8.235 3.388 7.865 3.166 C 7.688 3.057 7.511 2.951 7.337 2.842 C 6.994 2.628 6.617 2.563 6.245 2.658 C 5.232 2.905 4.49 3.523 4.034 4.492 C 3.854 4.88 3.845 5.306 4.019 5.728 C 4.098 5.92 4.173 6.113 4.249 6.308 C 4.362 6.606 4.479 6.911 4.61 7.209 C 4.881 7.819 4.852 8.359 4.508 8.897 C 4.275 9.267 3.97 9.485 3.574 9.561 C 3.004 9.67 2.394 9.764 1.757 9.84 C 1.218 9.9 0.8 10.168 0.51 10.635 C 0.118 11.268 -0.048 11.988 0.012 12.768 C 0.069 13.499 0.419 14.023 1.053 14.324 C 1.283 14.434 1.508 14.566 1.731 14.69 L 1.757 14.705 C 1.993 14.839 2.235 14.977 2.489 15.097 C 2.866 15.27 3.148 15.67 3.239 16.156 C 3.333 16.661 3.205 17.174 2.899 17.486 C 2.473 17.93 2.055 18.409 1.659 18.907 C 1.478 19.129 1.35 19.408 1.3 19.676 C 1.117 20.727 1.998 22.283 2.986 22.652 C 3.231 22.743 3.54 22.769 3.823 22.727 C 4.354 22.644 4.905 22.535 5.504 22.388 C 6.119 22.237 6.593 22.365 7.049 22.814 C 7.391 23.153 7.546 23.519 7.535 23.974 L 7.534 24.023 C 7.52 24.594 7.505 25.202 7.479 25.818 C 7.456 26.296 7.622 26.711 7.965 27.046 C 8.512 27.582 9.198 27.898 10.011 27.985 C 10.102 27.997 10.188 28 10.275 28 C 10.893 28 11.394 27.736 11.753 27.216 C 11.896 27.016 12.051 26.828 12.216 26.628 C 12.387 26.421 12.559 26.21 12.718 25.984 C 12.977 25.6 13.456 25.37 13.991 25.37 C 14.516 25.37 14.99 25.596 15.258 25.969 C 15.467 26.264 15.696 26.549 15.917 26.823 L 15.948 26.863 C 16.091 27.036 16.234 27.213 16.37 27.394 C 16.634 27.737 16.992 27.936 17.395 27.974 C 18.375 28.064 19.253 27.763 19.999 27.081 C 20.357 26.753 20.527 26.331 20.5 25.823 C 20.486 25.605 20.482 25.376 20.478 25.157 L 20.478 25.144 C 20.471 24.85 20.462 24.549 20.44 24.251 C 20.388 23.55 20.607 23.045 21.123 22.664 C 21.465 22.415 21.8 22.324 22.166 22.385 C 22.826 22.494 23.414 22.615 23.968 22.755 C 24.54 22.894 25.069 22.762 25.528 22.355 C 26.105 21.85 26.481 21.205 26.643 20.444 C 26.779 19.807 26.628 19.257 26.195 18.808 C 26.024 18.631 25.859 18.439 25.701 18.255 C 25.542 18.067 25.377 17.874 25.202 17.693 C 24.728 17.204 24.597 16.698 24.774 16.058 C 24.894 15.609 25.116 15.308 25.463 15.112 C 26.032 14.788 26.563 14.497 27.091 14.223 C 27.513 14.001 27.784 13.658 27.893 13.202 C 28.13 12.244 27.972 11.34 27.425 10.514 Z M 13.94 10.666 L 13.936 10.722 L 13.936 11.542 L 14.553 11.196 L 17.761 9.608 C 17.913 9.533 18.084 9.525 18.24 9.585 C 18.395 9.64 18.525 9.761 18.597 9.915 L 19.03 10.858 C 19.178 11.18 19.046 11.565 18.736 11.717 L 13.783 14.166 L 13.678 16.505 L 13.667 16.945 L 13.667 17.1 C 13.667 17.456 13.667 17.52 13.725 17.819 C 13.757 17.977 13.801 18.011 13.985 18.106 C 14.187 18.209 14.437 18.273 14.625 18.273 L 14.69 18.273 C 14.823 18.273 14.946 18.273 15.087 18.243 C 15.492 18.163 15.741 18.069 16.186 17.834 C 16.271 17.788 16.373 17.8 16.449 17.86 C 16.525 17.92 16.561 18.023 16.539 18.121 C 16.5 18.294 16.459 18.649 16.417 19 L 16.413 19.038 C 16.38 19.337 16.34 19.647 16.304 19.897 C 16.289 20 16.213 20.083 16.116 20.11 C 15.657 20.22 15.288 20.292 15.014 20.322 C 14.743 20.349 14.479 20.364 14.237 20.364 C 13.619 20.364 13.11 20.281 12.723 20.11 C 12.314 19.936 11.997 19.648 11.776 19.259 C 11.562 18.877 11.455 18.362 11.455 17.733 C 11.455 17.649 11.458 17.51 11.466 17.316 C 11.472 17.12 11.505 16.458 11.566 15.287 L 11.568 15.262 L 10.385 15.846 C 10.302 15.89 10.21 15.909 10.116 15.909 C 10.048 15.909 9.976 15.898 9.907 15.87 C 9.751 15.815 9.625 15.693 9.553 15.54 L 8.333 12.874 C 8.185 12.552 8.318 12.167 8.63 12.013 L 9.541 11.566 C 9.694 11.491 9.864 11.483 10.02 11.542 C 10.176 11.601 10.305 11.719 10.374 11.872 L 10.894 13.008 L 11.705 12.606 L 11.828 10.635 L 11.906 9.389 C 11.919 9.218 11.926 9.148 11.933 9.069 C 11.945 8.946 11.958 8.806 12.002 8.235 C 12.013 8.117 12.089 8.015 12.205 7.992 C 12.815 7.871 13.34 7.754 13.762 7.644 C 13.838 7.626 13.918 7.64 13.976 7.693 C 14.037 7.747 14.069 7.826 14.066 7.906 C 14.045 8.389 14.028 8.634 14.015 8.815 C 14 9.014 13.992 9.137 13.99 9.416 C 13.99 9.424 13.988 9.446 13.986 9.474 C 13.982 9.522 13.977 9.589 13.977 9.632 C 13.977 9.647 13.978 9.659 13.979 9.666 L 13.94 10.666 Z" fill="url(#gearGrad)" fill-rule="evenodd"></path></g>
  <g transform="translate(34.5 4.43)"><path d="M 49.213 2.138 L 49.529 0.396 L 49.529 0.336 C 49.529 0.112 49.417 0 49.193 0 L 47.273 0 C 47.167 0 47.068 0.04 46.976 0.119 C 46.884 0.198 46.824 0.29 46.798 0.396 L 46.481 2.138 L 46.481 2.197 C 46.481 2.303 46.514 2.385 46.58 2.444 C 46.646 2.504 46.732 2.533 46.838 2.533 L 48.757 2.533 C 48.863 2.533 48.959 2.494 49.044 2.415 C 49.13 2.336 49.186 2.243 49.213 2.138 Z M 7.224 4.413 L 7.026 5.581 C 7 5.686 6.941 5.779 6.848 5.858 C 6.756 5.937 6.657 5.977 6.551 5.977 L 4.77 5.977 L 3.681 12.191 C 3.615 12.521 3.582 12.752 3.582 12.884 C 3.582 13.069 3.632 13.184 3.731 13.231 C 3.83 13.277 4.005 13.3 4.255 13.3 L 5.304 13.3 C 5.397 13.3 5.479 13.313 5.552 13.339 C 5.624 13.366 5.661 13.432 5.661 13.537 L 5.661 13.597 L 5.443 14.844 C 5.403 15.042 5.258 15.16 5.007 15.2 C 4.757 15.239 4.523 15.272 4.305 15.299 C 4.087 15.325 3.866 15.338 3.642 15.338 C 2.771 15.338 2.105 15.173 1.643 14.844 C 1.181 14.514 0.95 13.953 0.95 13.161 C 0.95 13.016 0.96 12.864 0.98 12.706 C 1 12.548 1.023 12.376 1.049 12.191 L 2.138 5.977 L 0.317 5.699 C 0.106 5.673 0 5.561 0 5.363 L 0 5.304 L 0.158 4.413 C 0.185 4.307 0.241 4.215 0.327 4.136 C 0.412 4.057 0.508 4.017 0.614 4.017 L 2.474 4.017 L 2.771 2.394 C 2.797 2.289 2.853 2.203 2.939 2.137 C 3.025 2.071 3.121 2.025 3.226 1.998 L 5.126 1.682 L 5.205 1.682 C 5.39 1.682 5.482 1.761 5.482 1.919 L 5.482 1.979 L 5.106 4.017 L 6.888 4.017 C 7.112 4.017 7.224 4.129 7.224 4.354 L 7.224 4.413 Z M 17.115 7.938 C 17.115 8.122 17.105 8.31 17.085 8.502 C 17.065 8.693 17.042 8.881 17.016 9.066 L 16.858 10.016 C 16.792 10.346 16.633 10.511 16.383 10.511 L 9.93 10.511 C 9.904 10.656 9.881 10.791 9.861 10.916 C 9.841 11.042 9.831 11.177 9.831 11.322 C 9.831 11.863 9.983 12.295 10.287 12.618 C 10.59 12.942 11.111 13.103 11.85 13.103 C 12.576 13.103 13.262 13.077 13.909 13.024 C 14.555 12.971 15.09 12.925 15.512 12.886 L 15.591 12.886 C 15.67 12.886 15.739 12.899 15.799 12.925 C 15.858 12.952 15.888 13.011 15.888 13.103 L 15.888 13.183 L 15.65 14.489 C 15.624 14.647 15.581 14.766 15.522 14.845 C 15.462 14.924 15.34 14.977 15.155 15.003 C 14.826 15.056 14.516 15.106 14.225 15.152 C 13.935 15.198 13.638 15.234 13.335 15.261 C 13.031 15.287 12.708 15.307 12.365 15.32 C 12.022 15.333 11.626 15.34 11.177 15.34 C 10.742 15.34 10.293 15.274 9.831 15.142 C 9.37 15.01 8.951 14.789 8.575 14.479 C 8.198 14.169 7.888 13.76 7.644 13.252 C 7.4 12.744 7.278 12.114 7.278 11.362 C 7.278 11.177 7.285 10.986 7.298 10.788 C 7.311 10.59 7.338 10.385 7.377 10.174 L 7.595 8.947 C 7.753 8.023 7.997 7.238 8.327 6.592 C 8.657 5.945 9.059 5.421 9.534 5.018 C 10.009 4.616 10.557 4.325 11.177 4.147 C 11.797 3.969 12.484 3.88 13.236 3.88 C 13.895 3.88 14.469 3.982 14.958 4.187 C 15.446 4.391 15.848 4.675 16.165 5.038 C 16.482 5.401 16.719 5.83 16.877 6.324 C 17.036 6.819 17.115 7.357 17.115 7.938 Z M 14.105 6.58 C 14.396 6.877 14.541 7.316 14.541 7.896 C 14.541 8.028 14.534 8.154 14.521 8.272 C 14.508 8.391 14.488 8.516 14.462 8.648 L 10.266 8.648 C 10.398 7.923 10.661 7.322 11.057 6.847 C 11.453 6.372 12.047 6.135 12.839 6.135 C 13.393 6.135 13.815 6.283 14.105 6.58 Z M 26.826 4.751 L 26.628 5.879 C 26.589 6.13 26.464 6.255 26.252 6.255 L 26.173 6.255 C 26.041 6.229 25.857 6.202 25.619 6.176 C 25.382 6.15 25.121 6.127 24.837 6.107 C 24.554 6.087 24.253 6.067 23.937 6.047 C 23.62 6.028 23.323 6.018 23.046 6.018 C 22.888 6.018 22.719 6.028 22.541 6.047 C 22.363 6.067 22.198 6.107 22.047 6.166 C 21.895 6.225 21.769 6.315 21.67 6.433 C 21.571 6.552 21.522 6.717 21.522 6.928 C 21.522 7.192 21.72 7.463 22.116 7.74 L 24.431 9.323 C 25.025 9.732 25.418 10.141 25.609 10.55 C 25.8 10.959 25.896 11.381 25.896 11.817 C 25.896 12.437 25.777 12.968 25.54 13.41 C 25.302 13.852 24.986 14.218 24.59 14.509 C 24.194 14.799 23.732 15.01 23.204 15.142 C 22.677 15.274 22.116 15.34 21.522 15.34 C 21.364 15.34 21.143 15.337 20.859 15.33 C 20.575 15.323 20.272 15.304 19.949 15.271 C 19.625 15.238 19.289 15.195 18.939 15.142 C 18.589 15.089 18.263 15.023 17.959 14.944 C 17.761 14.878 17.662 14.759 17.662 14.588 L 17.662 14.489 L 17.88 13.301 C 17.907 13.196 17.956 13.117 18.029 13.064 C 18.101 13.011 18.19 12.985 18.296 12.985 L 18.355 12.985 C 18.593 13.011 18.863 13.037 19.167 13.064 C 19.47 13.09 19.77 13.113 20.067 13.133 C 20.364 13.153 20.645 13.169 20.908 13.183 C 21.172 13.196 21.377 13.202 21.522 13.202 C 22.01 13.202 22.416 13.133 22.739 12.994 C 23.063 12.856 23.224 12.556 23.224 12.094 C 23.224 11.936 23.175 11.781 23.076 11.629 C 22.977 11.477 22.809 11.315 22.571 11.144 L 20.156 9.481 C 19.774 9.217 19.464 8.878 19.226 8.462 C 18.989 8.046 18.87 7.601 18.87 7.126 C 18.87 6.466 18.998 5.929 19.256 5.513 C 19.513 5.097 19.843 4.767 20.245 4.523 C 20.648 4.279 21.096 4.111 21.591 4.019 C 22.086 3.926 22.571 3.88 23.046 3.88 C 23.64 3.88 24.234 3.913 24.827 3.979 C 25.421 4.045 25.995 4.151 26.549 4.296 C 26.734 4.348 26.826 4.467 26.826 4.652 L 26.826 4.751 Z M 35.054 5.581 L 35.252 4.413 L 35.252 4.354 C 35.252 4.129 35.14 4.017 34.916 4.017 L 33.135 4.017 L 33.511 1.979 L 33.511 1.919 C 33.511 1.761 33.418 1.682 33.234 1.682 L 33.154 1.682 L 31.254 1.998 C 31.149 2.025 31.053 2.071 30.967 2.137 C 30.882 2.203 30.825 2.289 30.799 2.394 L 30.502 4.017 L 28.642 4.017 C 28.536 4.017 28.44 4.057 28.355 4.136 C 28.269 4.215 28.213 4.307 28.186 4.413 L 28.028 5.304 L 28.028 5.363 C 28.028 5.561 28.134 5.673 28.345 5.699 L 30.166 5.977 L 29.077 12.191 C 29.051 12.376 29.028 12.548 29.008 12.706 C 28.988 12.864 28.978 13.016 28.978 13.161 C 28.978 13.953 29.209 14.514 29.671 14.844 C 30.133 15.173 30.799 15.338 31.67 15.338 C 31.894 15.338 32.115 15.325 32.333 15.299 C 32.551 15.272 32.785 15.239 33.036 15.2 C 33.286 15.16 33.431 15.042 33.471 14.844 L 33.689 13.597 L 33.689 13.537 C 33.689 13.432 33.652 13.366 33.58 13.339 C 33.507 13.313 33.425 13.3 33.332 13.3 L 32.283 13.3 C 32.033 13.3 31.858 13.277 31.759 13.231 C 31.66 13.184 31.611 13.069 31.611 12.884 C 31.611 12.752 31.644 12.521 31.71 12.191 L 32.798 5.977 L 34.579 5.977 C 34.685 5.977 34.784 5.937 34.876 5.858 C 34.969 5.779 35.028 5.686 35.054 5.581 Z M 43.834 4.751 L 43.636 5.879 C 43.597 6.13 43.471 6.255 43.26 6.255 L 43.181 6.255 C 43.049 6.229 42.864 6.202 42.627 6.176 C 42.389 6.15 42.129 6.127 41.845 6.107 C 41.561 6.087 41.261 6.067 40.944 6.047 C 40.628 6.028 40.331 6.018 40.054 6.018 C 39.896 6.018 39.727 6.028 39.549 6.047 C 39.371 6.067 39.206 6.107 39.054 6.166 C 38.903 6.225 38.777 6.315 38.678 6.433 C 38.579 6.552 38.53 6.717 38.53 6.928 C 38.53 7.192 38.728 7.463 39.124 7.74 L 41.439 9.323 C 42.033 9.732 42.426 10.141 42.617 10.55 C 42.808 10.959 42.904 11.381 42.904 11.817 C 42.904 12.437 42.785 12.968 42.548 13.41 C 42.31 13.852 41.993 14.218 41.598 14.509 C 41.202 14.799 40.74 15.01 40.212 15.142 C 39.684 15.274 39.124 15.34 38.53 15.34 C 38.371 15.34 38.15 15.337 37.867 15.33 C 37.583 15.323 37.28 15.304 36.956 15.271 C 36.633 15.238 36.297 15.195 35.947 15.142 C 35.597 15.089 35.271 15.023 34.967 14.944 C 34.769 14.878 34.67 14.759 34.67 14.588 L 34.67 14.489 L 34.888 13.301 C 34.914 13.196 34.964 13.117 35.036 13.064 C 35.109 13.011 35.198 12.985 35.304 12.985 L 35.363 12.985 C 35.601 13.011 35.871 13.037 36.175 13.064 C 36.478 13.09 36.778 13.113 37.075 13.133 C 37.372 13.153 37.652 13.169 37.916 13.183 C 38.18 13.196 38.385 13.202 38.53 13.202 C 39.018 13.202 39.424 13.133 39.747 12.994 C 40.07 12.856 40.232 12.556 40.232 12.094 C 40.232 11.936 40.182 11.781 40.084 11.629 C 39.985 11.477 39.816 11.315 39.579 11.144 L 37.164 9.481 C 36.781 9.217 36.471 8.878 36.234 8.462 C 35.996 8.046 35.878 7.601 35.878 7.126 C 35.878 6.466 36.006 5.929 36.264 5.513 C 36.521 5.097 36.851 4.767 37.253 4.523 C 37.656 4.279 38.104 4.111 38.599 4.019 C 39.094 3.926 39.579 3.88 40.054 3.88 C 40.648 3.88 41.241 3.913 41.835 3.979 C 42.429 4.045 43.003 4.151 43.557 4.296 C 43.742 4.348 43.834 4.467 43.834 4.652 L 43.834 4.751 Z M 48.758 4.413 L 46.938 14.765 C 46.911 14.87 46.852 14.966 46.759 15.052 C 46.667 15.138 46.568 15.18 46.463 15.18 L 44.642 15.18 C 44.536 15.18 44.457 15.148 44.404 15.082 C 44.351 15.016 44.325 14.936 44.325 14.844 L 44.325 14.765 L 46.146 4.413 C 46.172 4.308 46.228 4.216 46.314 4.136 C 46.4 4.057 46.496 4.018 46.601 4.018 L 48.422 4.018 C 48.646 4.018 48.758 4.13 48.758 4.354 L 48.758 4.413 Z M 59.806 4.86 C 59.813 4.84 59.816 4.817 59.816 4.791 C 59.816 4.672 59.776 4.586 59.697 4.533 C 59.618 4.48 59.506 4.434 59.361 4.395 C 58.833 4.25 58.213 4.127 57.5 4.029 C 56.788 3.93 56.115 3.88 55.481 3.88 C 54.69 3.88 53.981 3.966 53.354 4.137 C 52.727 4.309 52.179 4.589 51.711 4.979 C 51.243 5.368 50.857 5.879 50.553 6.512 C 50.25 7.146 50.019 7.924 49.86 8.848 L 49.603 10.372 C 49.564 10.596 49.537 10.807 49.524 11.005 C 49.511 11.203 49.504 11.395 49.504 11.579 C 49.504 12.252 49.61 12.823 49.821 13.291 C 50.032 13.76 50.322 14.146 50.692 14.449 C 51.061 14.753 51.497 14.974 51.998 15.112 C 52.499 15.251 53.034 15.32 53.601 15.32 C 53.892 15.32 54.188 15.304 54.492 15.271 C 54.795 15.238 55.099 15.188 55.402 15.122 L 55.383 15.28 C 55.303 15.94 55.109 16.399 54.799 16.656 C 54.489 16.913 53.957 17.042 53.205 17.042 C 52.981 17.042 52.707 17.032 52.384 17.012 C 52.061 16.993 51.728 16.973 51.384 16.953 C 51.041 16.933 50.712 16.91 50.395 16.884 C 50.078 16.857 49.808 16.831 49.583 16.805 L 49.544 16.805 C 49.293 16.805 49.148 16.917 49.108 17.141 L 48.91 18.19 C 48.91 18.216 48.907 18.239 48.901 18.259 C 48.894 18.279 48.891 18.296 48.891 18.309 C 48.891 18.414 48.92 18.49 48.98 18.536 C 49.039 18.583 49.122 18.625 49.227 18.665 C 49.465 18.744 49.887 18.843 50.494 18.962 C 51.101 19.081 51.886 19.14 52.849 19.14 C 53.707 19.14 54.436 19.067 55.036 18.922 C 55.637 18.777 56.135 18.546 56.53 18.23 C 56.926 17.913 57.236 17.501 57.461 16.993 C 57.685 16.485 57.863 15.868 57.995 15.142 L 59.796 4.929 C 59.796 4.903 59.8 4.88 59.806 4.86 Z M 56.965 6.195 C 56.781 6.155 56.513 6.116 56.164 6.076 C 55.814 6.037 55.461 6.017 55.105 6.017 C 54.287 6.017 53.683 6.251 53.294 6.719 C 52.905 7.188 52.631 7.897 52.472 8.847 L 52.215 10.371 C 52.176 10.609 52.143 10.83 52.116 11.034 C 52.09 11.239 52.077 11.433 52.077 11.618 C 52.077 12.146 52.202 12.542 52.453 12.806 C 52.703 13.069 53.165 13.201 53.838 13.201 C 54.076 13.201 54.382 13.185 54.758 13.152 C 55.134 13.119 55.468 13.083 55.758 13.043 L 56.965 6.195 Z M 75.705 8.036 C 75.784 7.575 75.823 7.152 75.823 6.77 C 75.823 5.873 75.606 5.167 75.17 4.652 C 74.735 4.137 74.042 3.88 73.092 3.88 C 72.406 3.88 71.779 3.959 71.212 4.118 C 70.644 4.276 70.11 4.52 69.609 4.85 C 69.437 4.586 69.183 4.358 68.847 4.167 C 68.51 3.976 68.058 3.88 67.491 3.88 C 66.897 3.88 66.376 3.972 65.927 4.157 C 65.479 4.342 65.023 4.566 64.562 4.83 L 64.641 4.414 L 64.641 4.355 C 64.641 4.131 64.529 4.019 64.304 4.019 L 62.582 4.019 C 62.477 4.019 62.381 4.058 62.295 4.137 C 62.21 4.217 62.154 4.309 62.127 4.414 L 60.306 14.766 L 60.306 14.845 C 60.306 14.937 60.333 15.017 60.385 15.083 C 60.438 15.149 60.517 15.182 60.623 15.182 L 62.444 15.182 C 62.549 15.182 62.648 15.139 62.741 15.053 C 62.833 14.967 62.892 14.871 62.919 14.766 L 64.324 6.77 C 65.221 6.334 65.868 6.117 66.264 6.117 C 66.673 6.117 66.963 6.183 67.135 6.315 C 67.306 6.446 67.392 6.697 67.392 7.067 C 67.392 7.199 67.385 7.344 67.372 7.502 C 67.359 7.66 67.333 7.839 67.293 8.036 L 66.105 14.766 L 66.105 14.845 C 66.105 14.937 66.132 15.017 66.185 15.083 C 66.237 15.149 66.317 15.182 66.422 15.182 L 68.243 15.182 C 68.349 15.182 68.448 15.139 68.54 15.053 C 68.632 14.967 68.692 14.871 68.718 14.766 L 69.906 8.036 C 69.945 7.786 69.968 7.542 69.975 7.304 C 69.981 7.067 69.991 6.836 70.005 6.611 C 70.4 6.427 70.786 6.298 71.162 6.225 C 71.538 6.153 71.819 6.117 72.004 6.117 C 72.426 6.117 72.729 6.189 72.914 6.334 C 73.099 6.479 73.191 6.743 73.191 7.126 C 73.191 7.245 73.181 7.38 73.161 7.532 C 73.142 7.684 73.119 7.852 73.092 8.036 L 71.905 14.766 L 71.905 14.845 C 71.905 14.937 71.931 15.017 71.984 15.083 C 72.037 15.149 72.116 15.182 72.221 15.182 L 74.042 15.182 C 74.148 15.182 74.247 15.139 74.339 15.053 C 74.431 14.967 74.491 14.871 74.517 14.766 L 75.705 8.036 Z M 87.194 4.929 L 85.472 14.786 C 85.446 14.891 85.386 14.984 85.294 15.063 C 85.202 15.142 85.103 15.182 84.997 15.182 L 83.414 15.182 C 83.203 15.182 83.097 15.069 83.097 14.845 L 83.097 14.786 L 83.176 14.212 C 82.622 14.634 82.094 14.928 81.593 15.092 C 81.091 15.257 80.597 15.34 80.108 15.34 C 79.66 15.34 79.238 15.264 78.842 15.112 C 78.446 14.961 78.1 14.733 77.803 14.429 C 77.506 14.126 77.275 13.753 77.11 13.311 C 76.945 12.869 76.863 12.351 76.863 11.757 C 76.863 11.573 76.869 11.378 76.882 11.174 C 76.895 10.969 76.922 10.768 76.961 10.57 C 76.988 10.372 77.021 10.174 77.06 9.976 C 77.087 9.805 77.12 9.62 77.159 9.422 C 77.199 9.224 77.232 9.033 77.258 8.848 C 77.535 7.291 78.142 6.074 79.079 5.196 C 80.016 4.319 81.283 3.88 82.879 3.88 C 83.513 3.88 84.169 3.926 84.849 4.019 C 85.528 4.111 86.165 4.236 86.759 4.395 C 86.904 4.434 87.016 4.477 87.095 4.523 C 87.174 4.57 87.214 4.652 87.214 4.771 C 87.214 4.837 87.207 4.889 87.194 4.929 Z M 83.564 6.056 C 83.914 6.083 84.181 6.116 84.366 6.155 L 83.277 12.37 C 82.829 12.634 82.4 12.839 81.991 12.984 C 81.582 13.129 81.186 13.201 80.803 13.201 C 80.421 13.201 80.097 13.093 79.833 12.875 C 79.569 12.657 79.438 12.265 79.438 11.697 C 79.438 11.578 79.444 11.45 79.457 11.311 C 79.47 11.173 79.49 11.031 79.517 10.886 L 79.873 8.847 C 79.939 8.438 80.035 8.062 80.16 7.719 C 80.285 7.376 80.45 7.079 80.655 6.828 C 80.859 6.578 81.113 6.38 81.417 6.235 C 81.72 6.089 82.083 6.017 82.505 6.017 C 82.862 6.017 83.215 6.03 83.564 6.056 Z" fill="#0A1A2A" fill-rule="evenodd"></path></g>
</svg>