<svg width="32" height="32" viewBox="0 0 32 32" fill="none" xmlns="http://www.w3.org/2000/svg">
  <path d="M16 3.5c-1.1 0-2 .9-2 2v1.3a9.3 9.3 0 0 0-2.4 1l-.9-.9a2 2 0 1 0-2.8 2.8l.9.9a9.3 9.3 0 0 0-1 2.4H6.5a2 2 0 1 0 0 4h1.3a9.3 9.3 0 0 0 1 2.4l-.9.9a2 2 0 1 0 2.8 2.8l.9-.9a9.3 9.3 0 0 0 2.4 1v1.3a2 2 0 1 0 4 0v-1.3a9.3 9.3 0 0 0 2.4-1l.9.9a2 2 0 1 0 2.8-2.8l-.9-.9a9.3 9.3 0 0 0 1-2.4h1.3a2 2 0 1 0 0-4h-1.3a9.3 9.3 0 0 0-1-2.4l.9-.9a2 2 0 1 0-2.8-2.8l-.9.9a9.3 9.3 0 0 0-2.4-1V5.5c0-1.1-.9-2-2-2Zm0 7.5a5 5 0 1 1 0 10 5 5 0 0 1 0-10Z" fill="#00B2BD"></path>
</svg>